<?xml version="1.0" encoding="UTF-8"?>
<svg id="Layer_2" data-name="Layer 2" xmlns="http://www.w3.org/2000/svg" viewBox="0 0 392.08 437.42">
  <defs>
    <style>
      .cls-1 {
        fill: #fff200;
      }

      .cls-1, .cls-2, .cls-3, .cls-4, .cls-5 {
        fill-rule: evenodd;
      }

      .cls-6, .cls-2 {
        fill: #fff;
      }

      .cls-3 {
        fill: #ce8434;
      }

      .cls-7 {
        fill: #213b81;
      }

      .cls-4 {
        fill: #000002;
      }
    </style>
  </defs>
  <g id="Layer_1-2" data-name="Layer 1">
    <g>
      <path class="cls-4" d="M109.11,86.25l.06-.06.06-.03c-5.13-10.14-7.6-21.46-3.15-32.54,7.76-19.29,33.98-29.89,51.96-37.06,11.48-4.58,23.95-8.95,34.8-14.82l3.21-1.74,3.21,1.74c10.85,5.87,23.32,10.24,34.8,14.82,17.98,7.17,44.2,17.77,51.96,37.06,4.46,11.09,1.98,22.42-3.16,32.57l.08.04.05.05c8.06-8.02,18.06-13.86,29.98-13.05,20.74,1.42,38.92,23.08,51.3,37.97,7.91,9.51,15.91,20.01,24.85,28.52l2.64,2.51-.66,3.59c-2.23,12.14-2.54,25.34-3.34,37.68-1.27,19.32-3.24,47.53-19.19,60.87-9.17,7.67-20.71,8.81-31.95,7.06v.09s-.04.05-.04.05c10.13,5.18,18.75,12.85,21.67,24.48,5.06,20.17-9.92,44.15-20.26,60.52-6.6,10.46-14.11,21.32-19.44,32.45l-1.57,3.29-3.61.48c-12.23,1.63-24.89,5.42-36.87,8.46-18.76,4.77-46.2,11.6-63.82.56-10.17-6.38-14.8-16.95-16.59-28.2h-.08s-.06,0-.06,0c-1.8,11.24-6.42,21.8-16.59,28.18-17.62,11.04-45.06,4.2-63.82-.56-11.98-3.04-24.64-6.84-36.87-8.46l-3.61-.48-1.57-3.29c-5.33-11.13-12.84-21.99-19.44-32.45-10.33-16.37-25.31-40.36-20.26-60.52,2.92-11.65,11.55-19.31,21.7-24.5l-.04-.07v-.06c-11.24,1.75-22.77.6-31.93-7.06-15.95-13.34-17.92-41.55-19.19-60.87-.81-12.34-1.11-25.54-3.34-37.68l-.66-3.59,2.64-2.51c8.94-8.51,16.95-19.01,24.85-28.52,12.38-14.89,30.56-36.55,51.3-37.97,11.92-.82,21.93,5.04,30,13.07Z"/>
      <path class="cls-1" d="M330.13,249.39l.98-5.99c58.79,15.17,45.97-58.56,53.37-98.8-29.64-28.21-62.6-95.4-101.25-48.57l-4.3-4.29-5.4-2.79c32.6-51.23-41.49-61.81-77.48-81.29-35.99,19.47-110.08,30.06-77.48,81.29l-5.41,2.76-4.32,4.27c-38.65-46.83-71.61,20.36-101.25,48.57,7.4,40.24-5.43,113.98,53.37,98.8l.96,6,2.73,5.42c-56.48,22.28-2.77,74.39,14.9,111.3,40.56,5.4,106.72,40.38,110.46-20.22l6,.94,6-.92c3.74,60.61,69.9,25.62,110.46,20.22,17.67-36.91,71.39-89.02,14.9-111.3l2.75-5.42Z"/>
      <path class="cls-3" d="M123.12,144.23c-3.56-4.61-11.61-10.21-11.71-11.46.72-7.45-8.62-13.83-14.89-10.47-1.01.54-1.5.57-1.48.08,12.84-12.52,33-7.38,39.68,9.67-3.66,3.85-7.33,7.69-11.6,12.18h0ZM113.03,160.12c3.28-5.25,6.1-9.76,8.91-14.26-9.97-15.36-30.75-16.35-40.82-1.5.08.48.56.35,1.44-.38,5.47-4.55,15.9-.18,16.69,7.26.35,1.21,9.36,5.07,13.77,8.87h0ZM106.33,177.72c-5.08-2.83-14.7-4.81-15.28-5.92-2.27-7.13-13.37-9.32-17.81-3.76-.71.89-1.16,1.11-1.33.66,6.87-16.57,27.43-19.79,40.28-6.74-1.85,4.98-3.7,9.96-5.86,15.76h0ZM103.32,196.31c.95-6.12,1.76-11.37,2.57-16.62-15.22-10.19-34.71-2.91-38.1,14.7.26.41.65.1,1.17-.91,3.23-6.34,14.54-6.43,18.2.1.8.98,10.61.97,16.16,2.73h0ZM104.1,215.12c-5.79-.6-15.4,1.37-16.38.57-4.9-5.66-15.96-3.3-17.85,3.56-.3,1.1-.63,1.48-.96,1.13-.21-17.94,17.41-28.99,34.37-22.06.26,5.3.52,10.61.82,16.8h0ZM108.64,233.4c-1.54-6-2.86-11.15-4.18-16.29-18-3.37-33.05,11-29.23,28.52.4.27.64-.16.72-1.3.47-7.1,10.83-11.64,16.77-7.08,1.12.58,10.13-3.28,15.93-3.86h0ZM116.77,250.38c-5.56,1.73-13.61,7.33-14.82,6.98-6.73-3.27-15.97,3.26-15.01,10.31.15,1.13,0,1.6-.44,1.42-7.26-16.4,4.59-33.51,22.9-33.82,2.33,4.77,4.66,9.55,7.37,15.12h0ZM128.15,265.38c-3.78-4.91-7.02-9.12-10.26-13.33-17.88,3.99-26.04,23.13-15.63,37.73.48.09.53-.4.15-1.48-2.36-6.71,5.37-14.97,12.63-13.11,1.26.1,8.02-7.01,13.12-9.82h0ZM158.68,287.1c-3.58,4.59-7,13.79-8.19,14.19-7.4,1.16-11.25,11.79-6.44,17.03.77.84.92,1.31.45,1.42-15.32-9.32-15.36-30.13-.5-40.84,4.64,2.59,9.27,5.18,14.68,8.2h0ZM176.59,292.93c-5.91-1.87-10.97-3.48-16.03-5.09-12.4,13.48-8.18,33.85,8.7,39.91.44-.2.2-.63-.72-1.3-5.77-4.16-4.13-15.35,2.88-17.97,1.09-.64,2.59-10.33,5.17-15.55h0ZM195.3,295.04c-1.48,5.63-1,15.43-1.94,16.27-6.34,3.98-5.7,15.27.79,18.19,1.04.47,1.36.84.97,1.13-17.76-2.53-25.98-21.64-16.55-37.34,5.28.56,10.56,1.11,16.73,1.76h0ZM214.06,293.34c-6.17.6-11.45,1.12-16.74,1.64-6.09,17.27,5.81,34.34,23.72,33.25.33-.35-.06-.66-1.17-.91-6.94-1.55-9.84-12.49-4.43-17.66.75-1.01-1.69-10.52-1.37-16.33h0ZM232.09,287.9c.86,5.76,5.16,14.58,4.63,15.72-4.26,6.15.78,16.28,7.89,16.41,1.14.02,1.59.24,1.33.65-17.32,4.67-32.41-9.66-29.92-27.8,5.07-1.57,10.15-3.14,16.07-4.97h0ZM248.65,278.95c-5.43,2.99-10.08,5.54-14.74,8.1,1.21,18.28,18.87,29.27,34.9,21.22.16-.46-.32-.58-1.44-.37-6.99,1.31-13.97-7.6-11.03-14.48.29-1.23-5.7-9-7.7-14.47h0ZM274.79,252.1c3.99,4.24,12.55,9.02,12.77,10.26.01,7.49,9.93,12.93,15.84,8.97.95-.64,1.44-.71,1.47-.23-11.56,13.72-32.13,10.57-40.44-5.76,3.27-4.19,6.54-8.37,10.35-13.25h0ZM283.28,235.3c-2.75,5.55-5.12,10.31-7.48,15.06,11.42,14.32,32.2,13.27,40.77-2.49-.13-.47-.59-.3-1.39.52-4.99,5.06-15.81,1.73-17.32-5.6-.46-1.17-9.82-4.14-14.58-7.49h0ZM288.23,217.13c5.34,2.33,15.09,3.35,15.78,4.4,2.96,6.88,14.22,7.97,18.09,2,.62-.96,1.04-1.22,1.26-.79-5.22,17.16-25.37,22.37-39.43,10.64,1.36-5.13,2.71-10.27,4.3-16.26h0ZM289.42,198.33c-.35,6.19-.64,11.49-.94,16.79,16.14,8.66,34.82-.49,36.49-18.35-.3-.38-.66-.04-1.08,1.02-2.6,6.62-13.85,7.82-18.13,1.68-.89-.89-10.65.07-16.35-1.14h0ZM286.81,179.69c5.82.04,15.19-2.87,16.24-2.17,5.43,5.16,16.21,1.72,17.42-5.29.19-1.12.48-1.53.85-1.22,1.96,17.83-14.5,30.55-32.05,25.31-.78-5.25-1.55-10.51-2.46-16.64h0ZM280.5,161.94c2.12,5.82,3.94,10.81,5.75,15.8,18.24,1.6,31.82-14.17,26.31-31.24-.43-.23-.62.22-.59,1.36.22,7.11-9.65,12.64-16,8.68-1.17-.47-9.76,4.26-15.47,5.39h0ZM270.75,145.83c5.36-2.26,12.83-8.62,14.07-8.39,7.02,2.6,15.58-4.8,13.93-11.72-.26-1.11-.16-1.6.3-1.45,8.83,15.61-1.29,33.79-19.49,35.89-2.78-4.52-5.57-9.05-8.81-14.32h0ZM187.59,109.11c.89-5.75-.62-15.45.23-16.38,5.89-4.62,4.07-15.78-2.69-18.01-1.08-.36-1.45-.7-1.08-1.02,17.92.66,28.1,18.81,20.36,35.41h-16.82ZM169.12,112.76c6.07-1.25,11.27-2.31,16.47-3.38,4.25-17.82-9.37-33.54-27.06-30.59-.29.39.13.65,1.26.78,7.07.82,11.1,11.39,6.25,17.1-.64,1.09,2.78,10.28,3.07,16.1h0ZM151.75,120.05c5.69-2.44,10.58-4.53,15.46-6.63.58-18.31-15.92-30.97-32.66-24.52-.21.44.26.61,1.39.51,7.09-.62,13.16,8.93,9.56,15.49-.41,1.19,4.79,9.51,6.25,15.15h0ZM136.21,130.69c5.09-3.54,9.45-6.57,13.81-9.6-3.11-18.05-21.83-27.14-36.93-17.46-.12.47.37.54,1.47.22,6.82-2.03,14.69,6.1,12.48,13.25-.16,1.25,6.61,8.35,9.17,13.58h0ZM142.32,277.79c-4.69-4.05-8.71-7.52-12.73-10.99-16.71,7.5-20.86,27.89-7.72,40.11.49,0,.43-.5-.15-1.48-3.66-6.1,2.25-15.74,9.73-15.38,1.25-.16,6.45-8.48,10.88-12.26h0ZM263.08,266.85c3.05,4.96,10.48,11.36,10.45,12.62-1.5,7.34,7.13,14.66,13.71,11.97,1.06-.43,1.55-.41,1.48.07-14.08,11.11-33.59,3.89-38.45-13.77,4.04-3.44,8.09-6.88,12.81-10.9h0ZM257.96,132.01c4.24,4.52,7.88,8.39,11.51,12.26,17.4-5.72,23.66-25.56,11.87-39.08-.48-.05-.48.45,0,1.48,3.01,6.45-3.89,15.42-11.29,14.28-1.26.02-7.3,7.76-12.1,11.05h0ZM242.65,121.04c5.06,3.57,9.4,6.63,13.74,9.69,15.9-9.1,18.04-29.79,3.77-40.67-.48.05-.38.54.3,1.45,4.24,5.71-.71,15.88-8.18,16.26-1.23.28-5.59,9.07-9.63,13.26h0ZM225.45,113.38c3.11-4.92,5.62-14.4,6.77-14.92,7.25-1.87,10.05-12.83,4.75-17.57-.85-.76-1.05-1.22-.58-1.37,16.16,7.78,18.22,28.49,4.48,40.6-4.87-2.13-9.73-4.25-15.41-6.73h0ZM207.07,109.33c6.06,1.29,11.26,2.39,16.45,3.5,11.03-14.62,4.84-34.49-12.55-38.87-.42.24-.14.65.85,1.22,6.15,3.58,5.61,14.88-1.12,18.17-1.02.74-1.57,10.54-3.63,15.98Z"/>
      <path class="cls-5" d="M196.59,112.17c49.6,0,89.82,40.22,89.82,89.82s-40.22,89.82-89.82,89.82-89.82-40.22-89.82-89.82,40.22-89.82,89.82-89.82Z"/>
      <circle class="cls-6" cx="196.75" cy="201.94" r="62.65" transform="translate(-77.07 134.76) rotate(-31.96)"/>
      <path class="cls-2" d="M115.49,174.32l1.59-5.39,10.41,3.07c1.03.3,1.96.75,2.78,1.35.82.59,1.48,1.33,1.96,2.22.48.89.75,1.75.81,2.59.08,1.16-.1,2.48-.53,3.95-.25.85-.59,1.76-1,2.73-.41.97-.9,1.74-1.45,2.31-.55.57-1.24,1.04-2.05,1.41-.82.37-1.6.55-2.35.56-1.21,0-2.24-.12-3.1-.37l-10.41-3.07,1.59-5.39,10.66,3.15c.95.28,1.77.24,2.46-.13.69-.37,1.18-1.02,1.45-1.96.27-.92.22-1.73-.15-2.41-.37-.68-1.04-1.16-2.01-1.45l-10.66-3.14h0ZM121.41,160.09l14.89,10.5,3.05-4.32-8.18-5.76,12.09.21,3.06-4.35-14.89-10.5-3.06,4.35,8.22,5.8-12.16-.21-3.03,4.29h0ZM137.55,139.85l4.29-3.67,11.83,13.85-4.29,3.67-11.83-13.85h0ZM146.23,132.1l14.85,12.6,5.33-2.95-2.91-19.21-5,2.77,2.82,13.43-9.94-9.48-5.14,2.85h0ZM170.1,120.24l14.68-3.39.88,3.79-9.17,2.12.65,2.83,8.5-1.96.84,3.62-8.5,1.96.81,3.5,9.44-2.18.93,4.02-14.95,3.45-4.1-17.75h0ZM192.35,134.09l1.38-18.16,9.35.71c1.73.13,3.05.38,3.94.75.9.37,1.59.98,2.09,1.82.5.85.71,1.86.62,3.02-.08,1.01-.36,1.86-.84,2.56-.48.7-1.12,1.25-1.91,1.65-.5.25-1.18.44-2.02.57.65.27,1.12.53,1.41.78.19.16.47.51.82,1.02.35.52.59.91.7,1.19l2.33,5.45-6.34-.48-2.58-5.77c-.33-.75-.63-1.24-.91-1.48-.38-.31-.84-.48-1.35-.52l-.49-.04-.56,7.36-5.63-.43h0ZM198.8,123.73l2.37.18c.25.02.76-.03,1.51-.14.38-.04.7-.21.95-.5.26-.29.41-.63.44-1.03.04-.59-.11-1.05-.46-1.4-.35-.35-1.03-.55-2.06-.63l-2.47-.19-.28,3.7h0ZM213.09,130l5.15,1.45c-.18.85-.17,1.56.02,2.1.31.88.96,1.51,1.98,1.86.76.26,1.4.29,1.94.08.54-.21.89-.55,1.05-1.02.16-.44.1-.91-.16-1.4-.26-.49-1.05-1.13-2.36-1.95-2.15-1.34-3.56-2.61-4.25-3.83-.7-1.21-.81-2.49-.34-3.84.31-.88.86-1.62,1.64-2.23.79-.61,1.77-.96,2.96-1.04,1.19-.09,2.67.18,4.46.81,2.2.77,3.73,1.76,4.59,2.99.87,1.22,1.1,2.76.69,4.62l-5.1-1.45c.14-.83.06-1.49-.24-1.99-.3-.51-.83-.89-1.58-1.15-.62-.22-1.13-.25-1.53-.1-.4.15-.67.42-.8.79-.1.27-.05.56.12.87.16.31.68.73,1.55,1.25,2.15,1.31,3.63,2.4,4.45,3.26.83.86,1.34,1.75,1.53,2.67.19.92.12,1.84-.21,2.79-.39,1.1-1.05,2.01-1.98,2.73-.94.71-2.03,1.13-3.3,1.22-1.26.1-2.72-.14-4.39-.73-2.92-1.02-4.75-2.3-5.48-3.81-.73-1.52-.87-3.17-.41-4.95h0ZM238.86,127.52l-9.63,15.46,4.79,2.98,9.63-15.46-4.79-2.99h0ZM249.07,133.91l12.48,11.73-3.08,3.28-4.19-3.94-9.39,9.99-4.1-3.85,9.39-9.99-4.19-3.94,3.08-3.28h0ZM258.06,167.48l-2.01,2.41,3.23,4.93,11.51-15.69-3.37-5.16-19,4.23,3.14,4.81,3.01-.88,3.49,5.34h0ZM260.71,164.32l-2.18-3.34,6.57-1.91-4.39,5.25h0ZM264.92,174.19l1.83,5.03c-.8.35-1.36.77-1.69,1.24-.54.76-.66,1.66-.35,2.7.23.77.58,1.31,1.07,1.62.49.31.97.4,1.44.26.45-.13.8-.45,1.04-.95.24-.5.3-1.52.2-3.06-.17-2.52.04-4.42.63-5.68.58-1.28,1.55-2.12,2.92-2.52.89-.26,1.82-.25,2.77.03.95.28,1.81.88,2.58,1.79.76.91,1.41,2.28,1.95,4.09.66,2.23.75,4.05.26,5.47-.48,1.42-1.6,2.5-3.35,3.26l-1.8-4.99c.75-.37,1.25-.82,1.48-1.36.23-.54.24-1.19.01-1.95-.19-.63-.46-1.06-.82-1.3-.36-.24-.73-.3-1.11-.19-.28.08-.49.28-.63.61-.16.32-.19.98-.11,1.99.19,2.51.17,4.35-.05,5.52-.22,1.17-.64,2.11-1.28,2.8-.63.69-1.43,1.18-2.38,1.46-1.12.33-2.24.33-3.37-.01-1.13-.34-2.1-.99-2.92-1.96-.82-.97-1.47-2.29-1.97-3.98-.88-2.97-.91-5.2-.11-6.68.81-1.48,2.07-2.56,3.78-3.23Z"/>
      <path class="cls-2" d="M121.14,226.8l2.34,4.41c-.69.43-1.16.89-1.41,1.36-.4.78-.4,1.62.02,2.54.31.68.7,1.14,1.19,1.36.49.23.94.24,1.36.05.4-.18.68-.52.84-1.01.16-.49.09-1.44-.21-2.85-.48-2.31-.53-4.08-.15-5.33.37-1.25,1.16-2.15,2.37-2.7.79-.36,1.65-.47,2.56-.32.92.14,1.79.58,2.61,1.33.82.74,1.6,1.92,2.33,3.53.89,1.98,1.21,3.65.94,5.02-.27,1.37-1.16,2.52-2.68,3.44l-2.3-4.38c.65-.44,1.05-.92,1.19-1.45.15-.53.07-1.13-.24-1.81-.25-.56-.56-.92-.92-1.1-.36-.18-.71-.19-1.05-.03-.25.11-.41.33-.51.64-.11.31-.05.93.15,1.85.49,2.29.71,4,.66,5.11-.05,1.11-.32,2.03-.82,2.75-.5.72-1.17,1.27-2.01,1.65-.99.45-2.03.59-3.12.42-1.09-.17-2.07-.65-2.95-1.44-.88-.79-1.65-1.93-2.33-3.43-1.19-2.63-1.51-4.68-.95-6.16.55-1.47,1.58-2.63,3.08-3.46h0ZM128.89,252.99l12.86-11.11,5.72,6.62c1.06,1.23,1.77,2.26,2.11,3.09.35.83.41,1.69.19,2.58-.23.89-.75,1.69-1.57,2.4-.71.62-1.46,1-2.24,1.14-.78.15-1.56.09-2.35-.17-.5-.16-1.07-.48-1.71-.95.25.61.39,1.09.42,1.44.02.23-.02.64-.13,1.22-.11.57-.21.99-.32,1.24l-2.05,5.14-3.88-4.49,2.09-5.51c.28-.71.4-1.23.37-1.57-.05-.46-.23-.87-.55-1.23l-.3-.35-5.21,4.5-3.44-3.99h0ZM139.97,250.39l1.45,1.68c.16.18.52.48,1.09.9.28.22.6.32.96.29.36-.02.68-.15.97-.4.42-.36.62-.77.62-1.22,0-.46-.32-1.05-.95-1.77l-1.51-1.75-2.62,2.27h0ZM158.07,257.58l-9.14,14.33,4.44,2.83,9.14-14.33-4.44-2.83h0ZM167.72,264.05l4.79,1.37-.88,9.61,5.13-8.39,4.75,1.36-.07,9.86,4.35-8.63,4.77,1.36-8.27,15.31-4.95-1.42.08-11.11-5.79,9.47-4.94-1.41,1.05-17.37h0ZM196.68,269.58l5.27-.12.38,16.99-5.27.12-.38-16.99h0ZM217.15,266.42l5.07-1.45,2.54,8.87c.53,1.86.78,3.33.72,4.4-.05,1.06-.48,2.08-1.29,3.04-.81.96-1.99,1.66-3.55,2.11-1.65.47-2.99.61-4.02.43-1.04-.18-1.92-.64-2.66-1.35-.74-.71-1.34-1.69-1.78-2.93l4.63-2.03c.21.71.43,1.23.65,1.54.22.32.5.54.85.67.23.09.53.08.88-.03.57-.16.92-.49,1.07-.98.14-.49.07-1.24-.21-2.23l-2.88-10.05h0ZM244.96,268.11l-5,3.22.8,2.82-4.51,2.9-3.82-17.75,4.83-3.11,14.55,10.84-4.62,2.98-2.23-1.89h0ZM242.03,265.61l-4.87-4.13,1.74,6.14,3.13-2.01h0ZM243.59,251.57l11.86.89,5.6,4.39,3.25-4.14-5.6-4.39-3.7-11.29-3.58,4.56,2.39,6.22-6.62-.83-3.6,4.59h0ZM273.75,229.27l-2.17,5.54,2.3,1.82-1.95,4.99-13.5-12.14,2.09-5.35,18.14.26-2,5.12-2.92-.23h0ZM269.92,228.96l-6.36-.5,5.01,3.96,1.35-3.46Z"/>
      <path class="cls-4" d="M45.11,411.56c78.23,34.48,223.64,34.48,301.87,0-2.69-9.34-5.38-18.68-8.07-28.02-88.37,33.24-197.37,33.24-285.74,0-2.69,9.34-5.38,18.68-8.07,28.02h0ZM341.56,381.41c-4.92-.11-9.83-.21-14.75-.32,18.12-6.02,35.94-13.26,53.49-21.55-1.8,5.48-3.61,10.97-5.41,16.45,5.73,3.64,11.46,7.29,17.19,10.93-14.06,7.27-28.46,13.78-43.94,17.94-2.19-7.82-4.39-15.64-6.58-23.46h0ZM330.63,384.28l-6.58,2.44-.74-2.97,7.32.53h0ZM50.52,381.41c-2.19,7.82-4.39,15.64-6.58,23.46-15.48-4.15-29.88-10.67-43.94-17.94,5.73-3.64,11.46-7.29,17.19-10.93-1.8-5.48-3.61-10.97-5.41-16.45,17.55,8.29,35.37,15.52,53.49,21.55-4.92.11-9.84.21-14.75.32h0ZM61.45,384.28l7.32-.53-.74,2.97-6.58-2.44Z"/>
      <path class="cls-3" d="M58.92,396.35l3.75,1.39-4.49,12.1-3.75-1.39,4.49-12.1h0ZM67.27,399.35l3.78,1.25-3.06,9.24,5.92,1.96-1,3.01-9.7-3.21,4.06-12.25h0ZM80.3,403.4l5.09,1.34-.05,8.1,3.94-7.09,5.07,1.33-3.28,12.48-3.16-.83,2.5-9.52-4.93,8.88-2.86-.75.07-10.15-2.5,9.52-3.16-.83,3.28-12.48h0ZM106.8,409.59l3.9.8-1.54,7.53c-.15.74-.41,1.43-.78,2.04-.37.62-.85,1.12-1.45,1.52-.6.4-1.19.64-1.78.73-.82.12-1.76.08-2.82-.14-.62-.13-1.28-.31-1.99-.54-.71-.23-1.28-.53-1.72-.89-.44-.36-.81-.81-1.12-1.36-.31-.55-.49-1.1-.53-1.63-.08-.85-.05-1.59.08-2.21l1.54-7.53,3.9.8-1.58,7.71c-.14.69-.06,1.27.24,1.73.3.47.79.77,1.47.91.67.14,1.23.05,1.7-.25.46-.3.76-.8.9-1.5l1.58-7.71h0ZM127.22,423.83l-4.48-.59-.92,2.02-4.04-.53,6.5-12.16,4.33.57,3.11,13.43-4.14-.55-.36-2.19h0ZM126.75,420.95l-.79-4.78-2.01,4.41,2.8.37h0ZM136.84,414.2l3.96.44-1.06,9.68,6.2.68-.35,3.15-10.16-1.12,1.41-12.83h0ZM157.91,427.01l-4.51-.31-.79,2.08-4.06-.28,5.73-12.55,4.36.3,3.94,13.21-4.17-.29-.5-2.17h0ZM157.26,424.16l-1.09-4.72-1.73,4.53,2.82.19h0ZM164.79,416.69l12.12.59-.15,3.19-4.07-.2-.47,9.7-3.98-.19.47-9.7-4.07-.2.15-3.19h0ZM186.66,417.51l6.63.06c1.45.01,2.52.37,3.24,1.06.71.7,1.06,1.68,1.05,2.95-.01,1.3-.42,2.32-1.21,3.05-.79.73-1.99,1.08-3.6,1.07l-2.19-.02-.05,4.78-4-.04.12-12.91h0ZM190.61,423.07h.98c.78.02,1.32-.11,1.64-.38.31-.26.47-.61.48-1.02,0-.41-.13-.75-.4-1.03-.27-.28-.78-.43-1.53-.44h-1.14s-.03,2.87-.03,2.87h0ZM201.67,417.64l10.67-.31.08,2.76-6.67.19.06,2.05,6.18-.18.08,2.63-6.18.18.07,2.54,6.87-.2.08,2.92-10.87.32-.37-12.9h0ZM216.94,417.19l3.72-.18,5.18,6.88-.35-7.12,3.76-.18.63,12.89-3.76.18-5.15-6.85.34,7.08-3.75.18-.63-12.89h0ZM241.05,423.91l-.24-2.68,6.14-.55.49,5.47c-1.1.91-2.09,1.55-2.97,1.92-.88.37-1.94.61-3.18.72-1.53.14-2.79-.01-3.8-.45-1.01-.43-1.82-1.14-2.44-2.12-.62-.98-.99-2.14-1.11-3.47-.12-1.4.06-2.65.54-3.74.49-1.09,1.26-1.95,2.33-2.59.83-.49,1.99-.8,3.46-.93,1.42-.13,2.49-.09,3.22.1.73.19,1.35.54,1.86,1.04.51.5.92,1.15,1.23,1.96l-3.76,1.03c-.2-.47-.5-.82-.9-1.05-.4-.23-.89-.31-1.48-.26-.87.08-1.54.44-2,1.09-.46.65-.64,1.63-.52,2.94.12,1.39.47,2.36,1.05,2.91.57.55,1.33.78,2.26.7.44-.04.86-.14,1.25-.3.39-.16.83-.42,1.32-.77l-.11-1.2-2.66.24h0ZM260.02,424.47l-4.48.59-.37,2.19-4.04.53,3.13-13.43,4.33-.57,6.48,12.16-4.14.55-.92-2.02h0ZM258.82,421.81l-2-4.41-.8,4.78,2.8-.37h0ZM266.82,412.69l7.38-1.14c1.23-.19,2.22-.03,2.97.48.75.51,1.2,1.21,1.34,2.11.12.75-.02,1.44-.41,2.05-.26.41-.67.76-1.24,1.07.95.08,1.68.35,2.2.82.51.47.83,1.11.96,1.92.1.66.04,1.28-.18,1.86-.23.58-.58,1.06-1.07,1.45-.3.24-.78.46-1.43.65-.87.25-1.45.4-1.74.45l-6.81,1.05-1.97-12.75h0ZM271.57,417.08l1.72-.27c.61-.09,1.03-.27,1.24-.52.21-.25.28-.58.22-.98-.06-.37-.22-.64-.5-.81-.27-.17-.71-.21-1.31-.12l-1.75.27.37,2.42h0ZM272.34,422.08l2.01-.31c.68-.11,1.14-.3,1.38-.58.24-.28.33-.63.27-1.03-.06-.38-.24-.66-.55-.84-.31-.19-.81-.23-1.51-.12l-2,.31.4,2.58h0ZM282.52,410.15l5.81-1.19c1.14-.23,2.1-.27,2.87-.1.77.17,1.44.49,2.02.98.58.49,1.05,1.09,1.41,1.82.37.73.64,1.52.81,2.39.28,1.35.34,2.43.18,3.24-.15.81-.45,1.52-.9,2.13-.44.62-.96,1.07-1.55,1.37-.81.4-1.56.68-2.26.82l-5.81,1.19-2.59-12.64h0ZM287.01,412.22l1.41,6.9.96-.2c.82-.17,1.38-.38,1.69-.63.31-.25.51-.62.62-1.11.1-.49.05-1.24-.16-2.26-.27-1.34-.68-2.21-1.22-2.61-.54-.4-1.32-.5-2.33-.3l-.98.2h0ZM298.43,406.77l3.9-.91,2.92,12.57-3.9.91-2.92-12.57h0ZM317.46,412.95l-4.33,1.28-.02,2.22-3.9,1.15,1.01-13.75,4.19-1.24,8.29,11.01-4.01,1.18-1.22-1.86h0ZM315.86,410.51l-2.66-4.05-.04,4.85,2.71-.8h0ZM321.84,400.55l4.49,12.1,3.52-1.3-2.47-6.65,6.98,4.97,3.53-1.31-4.49-12.1-3.53,1.31,2.48,6.68-7.02-5-3.49,1.29Z"/>
      <circle class="cls-7" cx="196.75" cy="201.94" r="58.78" transform="translate(-67.37 103.29) rotate(-25.27)"/>
      <path class="cls-2" d="M188.75,159.56c-.05-.8-.22-1.62-.4-2.41-.46-2-.8-1.73-1.47-1.91-1.17,1.7,1.37,5.66-.1,8.54-1.27-.26-.93-1.18-1.42-2.28l-2.59-5.03c-.53-1.23-.16-1.96-1.23-2.36-.9,1.86.55,2.22.99,5.72.31,2.45,1.27,3.44,1.11,5.9-3.06.17-1.93-2.48-3.78-3.01-1.12,1.44.44,3.11.44,4.98-1.75-.06-1.92-.54-2.76-1.74-1.71-2.41-1.36-2.22-2.65-2.46l.06,2.27c.56.37-.02-.31.62.73,1.18,1.89.92,3.48-.37,2.66l-2.2-2.3c-2.47-3.43-2.85-3.51-5.58-6.82-.7-.85-1.18-.96-1.61-1.46-.66-.78-.08-.88-1.11-1.65-.74,1.04-.21,1.27.44,2.04l5.57,8.75c.52.83.65.71,1.09,1.7.38.86.21,1.09.9,1.65-2.71.74-4.29-3.67-7.31-4.22.13,2.35,2.29,3.65,3.56,5.73,1.15,1.88.58,1.53.46,1.65-1.27,1.23-9.2-7.11-11.38-7.17.18,1.23-.19.02.64,1.32l.29.44.98,1.07c1.06.51,1.19.97,2.07,1.77l2.84,2.78c.87.79,1.11.52,1.59,2.05.5,1.6.02.91-.65.65-4.14-1.6-4.5-3.33-7.2-3.59.46,3.48,6.32,4.52,5.98,7.62-2.15.02-2.09-.65-3.96-.84.4,3.43,2.03.86,1.95,4.19-2.7.16-5.44-1.86-6.75-1.22l1.24,1.21c.53.52.36.52,1.21.86,2.11.95,1.29,1.48,2.97,2.62-3.07,1.87-11.16-3.79-13.53-1.87.66,1.21.53.51,2.65,1.32,1.26.48,1.77.68,3.13,1.13,1.17.38,1.61.9,2.7,1.31,1.38.52,2.29.3,2.26,1.81-2.63,1.42-5.58-.64-7.33.61.61,1.06,1.47.5,3.58,1.56.58.29,1.02.53,1.75.76,1.02.33,1.41.27,1.81,1.05-.84,1.15-2.78,1.02-4.52.93-.94-.05-1.88-.14-2.82-.19-.35-.02-1.09-.06-1.41.02-.87.21-.59-.04-.96.65.51.63.23.48,2.54.73,3.86.43,4.7.12,6.72,2.27-1.98,1.48-6.74.84-7.55,1.21-.98.45-.33-.28-.55.84,2.48,1.19,6.45-.03,8.74,1.17-.66,2.13-2.33,2.24-2.8,2.4-1.44.48-.81.09-1.17,1.07l3.21.12c1.03.12,2.14.56.9,1.71-.42.39-1.26.56-1.83.76-1.5.53-2.72.9-3.13,1.75.07.05.18.02.23.12.22.47,2.07.2,2.61.09,4.81-.96,2.33,2.84-1.08,2.59-.04.05-.11.05-.13.13-.02.08-.11.1-.14.13-1.12.83-6.18,2.38-7.38,3.28,1.46,1.46,4.43,0,6.16-.52,1.94-.6,3.86-1.01,5.62-1.43l.49.56c-.99,1.55,1.1.1-2.48,2.45-3.07,2.01-2.93.95-3.33,2.43,1.13.81,2.89-.01,3.99-.64.97-.55,2.57-1.03,3.79-.3-.01,1.11-2.97,2.74-4.04,3.42-2.03,1.31-1.33,1.3-3.49,2.46-.83.45-.74.24-1,1.25,2.23.07,1.74-.16,3.03-.93,1.17-.7,1.59-.51,2.8-1.4,1.11-.81,1.54-.66,2.65-1.28,1.11-.61,1.34-1.3,2.36-.06-.58,1.34-7.91,6.82-8.45,8.02,1.58.07.84.03,3.02-1.26.94-.55,1.86-1.1,2.8-1.65,1.16-.68,1.56-1.07,2.7-1.8.91-.58,1.75-1.39,2.82-.51-.09,1.48-1.81,2.05-2.04,4.06,2.66.06,1.69-1.08,3.34-1.43,1.06-.22.8-.1,1.25.2,1.14,1.17-2.62,3.27-2.75,5.86,2,.05,1.81-1.49,4-2.69,1.31-.72,2.28-.63,1.15,1.42-1.4,2.53-7.57,11.29-7.71,13.1,1.03-.3,3.16-3.19,4.02-4.16,1.33-1.51,2.38-3.08,3.72-4.7l2.15-2.38c.34-.32.44-.52,1.02-.42,1.5.25.2,1.38-.12,2.22-.32.85-.11.92-.57,1.69-.87,1.46-1.15.93-1.09,3.39,1.1-.16.96-.25,1.83-.71.05-.74-.04-.34.34-.84.38-1.27,2.44-3.63,2.49-3.67,1.09-.8,1.24-.11,1.38.05.87,1.58-3.64,8.6-3.09,11.05.95-.44.92-1.56,1.52-2.49l2.97-5.48c.59-1.19,1.19-1.29,2.42-1.57-.09,1.29-.6,3.5-.88,5.04-.36,1.93-1.18,2.82-1.07,5.06l3.81-7.63c.41-1.09.64-2.4,1.88-1.75,1.26,1.22-.45,2.77.87,4.16,1.26-1.24.8-2.61,3.06-4.08,1.51,1.85.51,3.38.79,4.97l.36.97c.97-.22.69-.57,1.15-1.24-.19-1.53.15-2.3.85-3.28,2.58.56,1.82,3.02,1.74,5.55l.46,5.25c.33,2.04-.06.94.86,1.34,1-1.75-.26-8.68,1.42-11.92,1.54.68,2.52,3.77,2.39,6.08.45.51.06.9.96,1.36,1.28-1.88-.54-6.2,1.12-7.66,1.59.53,2.82,7.24,2.82,7.24.59,1.11-.38.47,1.12.72.21-.33.52.15.21-2.24-.42-3.27-1.14-5.09-.06-6.49,1.72.54,1.21,1.99,2.09,3.48.56.94.78.67,1.02,2.02.3,1.65-.09,1.78,1.23,2.07,1.64-2.65-2.99-7.59-.74-10.13l2.3,2.48c.78.94-.04.6,1.39.93.1-2.87-1.62-3.88-.62-4.87.86-.59,2.39,1.21,2.68,1.65.39.6.57.85,1,1.5.88,1.33.25,1.15,1.73,1.43-.05-2.57-2.12-4.41-1.21-5.7,1.02-.77,1.12-.12,1.71.66.58.76.99.92,1.49,1.61.61.84.49.98,1.29,1.81l2.66,3.34c.03.06.06.14.09.19.79,1.51.31.29,1.47,1.51.9.95.17.74,1.54,1.82,1.14.91.64.81,1.49,1.34-.1-1.72-2.93-5.3-3.95-6.97-1.68-2.77-3.85-5.22-3.69-6.45.17-1.28.91-1.3,1.95-.29l2.58,2.49c.82.81.69.89,2.12.99-.41-2.75-5.12-5.71-4.04-7.96.92.31,6.38,4.48,7.12,5.16.68.62,1.82,1.43,2.75,1.6-.17-1.26-2.68-4.02-3.74-4.85-.88-.69-3.47-2.76-3.52-3.98-.05-1.19.25-1.09,2.42.32l6.33,3.73c.63.34.62.55,1.41.65-.09-.88-.42-.98-1.16-1.68-1.43-1.38-7.22-5.59-7.3-7.07,2.38-1.37,3.66,1.48,5.35.72-.68-2.18-3.56-2.2-3.64-3.93,2.03-1.47,3.17.19,4.62.07,1.45-.12.45.06,1.03-.35-.39-1.69-.88-.94-2.03-1.84-.35-.27-2.78-3.47,1.74-1.72,1.01.39,2.28.59,3.22.78,1.93.38,3.05,1.12,4.44,1.26,1.83.18,1.79-.35,1.91-.44-.65-1.63-2.45-.93-3.78-2.3-1.46.12-2.85-.51-4.03-1.03-1.66-.73-2.06-1.14-2.4-2.74l6.34.3c1.9-.37-1.57.59.51-.16l.47-.25c-.53-.82-.65-.66-1.78-.86-.72-.13-1.37-.26-2.05-.52-.94-.36-2.79-1.09-3.32-1.99,1.16-1.37,4.92-.84,7.02-.7.25.02,1.21.04,1.42,0,.87-.22.61.01.99-.7l-1.46-.84c-.06-.03-.17-.06-.24-.11l-.29.19c-2.12.05-5.95-.07-6.53-1.77.86-2.43,7.15-.52,8.88-2.25-2.47-1.7-8.02.61-9.98-1.71.54-2.49,2.72-1.25,3.89-2.78-.61-.53-.55-.36-.96-.42-1.35-.22-3.37.32-3.84-1.26,1.01-1.67,4.22-.58,5.08-3.12-1.58-.14-3.56.27-4.84-.27-.74-1.61,1.22-2.2,2.69-2.13l6.37-2.78c2.2-.81,1.49-.23,1.82-1.24-1.61-1.13-4,.2-6.11.8-1.64.47-3.87,1.08-5.77,1.06.2-1.57,1.26-1.99,2.67-2.7.96-.48.92-.69,1.7-1.1,1.22-.64,1.28-.1,1.58-1.42-1.11-.69-2.84.09-3.98.67-1.2.61-2.22,1.01-3.86.53-.15-1.49,3.49-3.44,4.8-3.95l.36-.15,1.46-1.52c.97-.95.84-.24,1.15-1.57-1.17.05-4.03,1.44-5.05,2.15-1.17.82-1.36.43-2.36,1-.85.49-.88,1.47-2.24.59-.65-.78,3.18-3.88,4.58-5.26,1.08-1.07,1.31-.2,1.68-1.85-3.03.08-7.05,4.66-9.49,4.4l.34-3.17-2.84.36-.58-.66c.11-1,.49-1.01,1-1.66.83-1.07.29-.96,1.31-1.65l-.08-.06c.19-.57.31-1.03.37-1.86-2.5.54-3.11,2.79-5.16,2.59-.13-1.64.18-1.17.85-2.3l6.19-9.52c.81-1.17,1.99-2.72,1.97-3.93-.93.14-.97.56-1.24.96l-3.05,3.75c-.67.81-.74,1.01-1.41,1.65-1.37,1.3-4.14,5.91-5.96,6.32-1.47-1.42.01-1.75.75-3.66l1.4-3.14c.35-1.6.06-.72-.18-1.14-1.66.4-3.89,4.84-4.4,5.33-.06.05-1.36.94-1.63.61-.84-1.03,1.33-4.8,1.75-6.03.25-.72.29-.97.52-1.71.38-1.2,1.62-3.1.96-4.62-.94.37-4.16,8.05-4.7,8.93-.56.91-1.39,1.14-1.91,2.3-.94-1.49-.29-3.47.45-5.2.1-2.27.25-1.91-.3-2.7-2.57,1.01-1.22,6.9-5.02,6.91-.28-1.06.08-2.71-.31-3.66-2.7.32-.37,1.96-2.81,3.31-2.04-1.7-.07-4.04-1.4-5.97-.68.49-.71,1.89-1.26,2.84-.33.58-1.03,1.7-1.55,1.97-2.22-1.1-.37-9.91-1.69-12.16-1.03.47-.39-.74-.83,1.07-.06.26-.08,1.24-.12,1.6-.25,2.72-.18,7.5-.86,8.62-1.31-.1-2.01-1.09-2.24-2.64-.11-.74-.11-1.47-.21-2.23-.21-1.56.03-1.4-1.08-1.6-.04.07-.08.17-.1.24l-.21.75c-.03.21-.03.88-.02,1.12.05,2.51.63,4.31-.79,5.27-.72-.46-1.81-2.06-2.07-3.4Z"/>
    </g>
  </g>
</svg>