<svg width="345" height="72" viewBox="0 0 345 72" fill="none" xmlns="http://www.w3.org/2000/svg">
<g clip-path="url(#clip0_171_109)">
<path d="M152.307 56.3617C150.995 57.3762 149.451 57.8835 147.657 57.8835C147.329 57.8835 147.03 57.826 146.722 57.7878V62.353C149.924 62.2955 152.48 61.5203 154.38 59.9699C156.339 58.3716 157.727 55.931 158.547 52.6579L154.795 51.9592C154.448 53.8734 153.618 55.3377 152.307 56.3522V56.3617Z" fill="black"/>
<path d="M204.442 46.8772C202.657 46.8772 201.066 47.2026 199.677 47.863C198.288 48.5138 197.208 49.4135 196.426 50.5619C195.645 51.7104 195.259 52.9833 195.259 54.3998C195.259 55.9024 195.655 57.2518 196.446 58.4673C197.237 59.6828 198.336 60.6398 199.735 61.3385C201.143 62.0372 202.744 62.3817 204.548 62.3817C206.352 62.3817 207.924 62.0372 209.313 61.3576C209.573 61.2332 209.805 61.0897 210.036 60.9461V57.4911C209.429 57.8165 208.744 57.9888 207.953 57.9888C206.805 57.9888 205.86 57.6442 205.117 56.9647C204.374 56.2852 203.998 55.4238 203.998 54.3902C203.998 53.682 204.172 53.0503 204.509 52.4761C204.847 51.9114 205.32 51.4616 205.927 51.1362C206.535 50.8108 207.21 50.6481 207.963 50.6481C208.754 50.6481 209.438 50.8204 210.046 51.1458V48.2841C209.68 48.0544 209.294 47.8535 208.86 47.6716C207.567 47.1357 206.091 46.8677 204.452 46.8677L204.442 46.8772Z" fill="black"/>
<path d="M283.923 56.1416C282.37 55.4812 280.537 55.1462 278.415 55.1462H275.435V61.8074H277.711C278.791 61.8074 279.65 62.018 280.306 62.4391C280.952 62.8602 281.28 63.4631 281.28 64.2384C281.28 65.406 280.624 66.3056 279.312 66.9373C278.329 67.4062 277.036 67.7029 275.435 67.8178V71.8279C277.769 71.6748 279.824 71.2919 281.598 70.6794C283.952 69.8659 285.717 68.7557 286.913 67.3775C288.1 65.9898 288.698 64.4585 288.698 62.7645C288.698 61.3193 288.293 60.0177 287.473 58.8597C286.653 57.7016 285.476 56.802 283.923 56.132V56.1416Z" fill="black"/>
<path d="M310.449 56.4C309.127 57.5102 307.488 58.0653 305.53 58.0653C305.394 58.0653 305.279 58.0365 305.144 58.027V62.3146C308.172 62.1711 310.642 61.3863 312.494 59.8837C314.529 58.2184 315.957 55.8162 316.776 52.6674L312.976 51.9688C312.609 53.8159 311.77 55.2898 310.449 56.4Z" fill="black"/>
<path d="M133.536 41.3356C132.282 43.4986 131.645 45.9487 131.645 48.6859C131.645 51.4231 132.263 53.7966 133.497 55.8639C134.732 57.9311 136.459 59.5294 138.677 60.6684C140.346 61.5201 142.217 62.0561 144.281 62.2666V57.0506C143.5 56.6295 142.806 56.0649 142.227 55.3088C140.905 53.5956 140.249 51.0881 140.249 47.7767C140.249 45.0873 140.819 42.8765 141.957 41.1347C142.545 40.235 143.326 39.5842 144.291 39.1535V34.55C142.285 34.7606 140.423 35.3348 138.735 36.2632C136.536 37.4787 134.809 39.1631 133.555 41.3261L133.536 41.3356Z" fill="black"/>
<path d="M152.606 35.823C150.85 34.9904 148.882 34.5597 146.722 34.4832V38.6081C146.982 38.589 147.223 38.5411 147.503 38.5411C149.442 38.5411 150.86 39.1154 151.747 40.2734C151.101 40.6849 150.638 41.24 150.339 41.9291C150.04 42.6182 149.895 43.269 149.895 43.8911C149.895 44.6855 150.088 45.4033 150.484 46.0636C150.879 46.7144 151.419 47.2313 152.114 47.6141C152.808 47.9969 153.58 48.1788 154.429 48.1788C155.277 48.1788 155.972 47.9969 156.618 47.6237C157.264 47.2504 157.766 46.7336 158.142 46.0732C158.518 45.4128 158.702 44.6663 158.702 43.8433C158.702 42.3311 158.171 40.8476 157.101 39.3833C156.03 37.9286 154.535 36.7418 152.606 35.8326V35.823Z" fill="black"/>
<path d="M172.659 56.7828C172.379 56.4957 172.244 56.0937 172.244 55.5577V25.8792H160.505V30.5018H162.589C163.129 30.5018 163.534 30.6358 163.814 30.9133C164.094 31.1909 164.229 31.5928 164.229 32.1288V55.5577C164.229 56.0937 164.094 56.5052 163.814 56.7828C163.534 57.0699 163.129 57.2135 162.589 57.2135H160.505V61.8648H175.447V57.2135H173.884C173.344 57.2135 172.939 57.0699 172.659 56.7828Z" fill="black"/>
<path d="M220.213 56.7828C219.933 56.4957 219.798 56.0938 219.798 55.5578V44.5037C219.798 42.4747 219.306 40.6946 218.313 39.1824C217.319 37.6703 215.93 36.5026 214.117 35.6796C213.596 35.4403 213.036 35.2489 212.467 35.0862V58.5343L213.895 61.8649H223.502V57.2135H221.418C220.878 57.2135 220.473 57.07 220.193 56.7828H220.213Z" fill="black"/>
<path d="M202.079 35.4116C200.333 36.0528 198.954 36.9142 197.941 38.0244C196.928 39.125 196.417 40.3405 196.417 41.6708C196.417 42.4652 196.6 43.183 196.966 43.8242C197.333 44.4654 197.835 44.9823 198.481 45.3459C199.127 45.7192 199.841 45.901 200.642 45.901C201.442 45.901 202.223 45.7192 202.879 45.3459C203.535 44.9727 204.056 44.4654 204.442 43.8242C204.818 43.1734 205.011 42.4556 205.011 41.6708C205.011 40.9817 204.876 40.3788 204.596 39.8524C204.317 39.326 203.911 38.924 203.371 38.6465C204.365 38.4072 205.407 38.2828 206.525 38.2828C208.011 38.2828 209.178 38.6752 210.036 39.4217V34.6077C209.332 34.5215 208.609 34.4641 207.847 34.4641C205.744 34.4641 203.825 34.7799 202.079 35.4212V35.4116Z" fill="black"/>
<path d="M285.447 48.0734C286.527 46.7335 287.058 45.1735 287.058 43.4029C287.058 42.1587 286.797 41.0294 286.277 39.9958C285.756 38.9621 285.003 38.0625 284.01 37.2873C285.264 36.4068 286.277 35.3444 287.058 34.1002C287.839 32.856 288.225 31.5257 288.225 30.138C288.225 29.401 288.051 28.7215 287.704 28.1186C287.357 27.5156 286.884 27.0467 286.277 26.7021C285.669 26.3576 285.003 26.1853 284.27 26.1853C283.074 26.1853 282.081 26.5298 281.29 27.2189C280.499 27.908 280.103 28.7981 280.103 29.8796C280.103 30.7888 280.383 31.6023 280.933 32.3105C281.492 33.0187 282.245 33.459 283.2 33.6313C283.094 34.1481 282.939 34.5788 282.746 34.9329C282.544 35.287 282.254 35.622 281.878 35.9569C279.968 35.1051 277.808 34.6458 275.435 34.5309V37.4882C276.255 37.6892 276.901 38.1295 277.374 38.8186C278.029 39.8043 278.367 41.3356 278.367 43.4125C278.367 45.4893 278.039 46.9728 277.374 47.949C276.901 48.638 276.255 49.0687 275.435 49.2697V52.2558C277.46 52.16 279.303 51.8251 280.933 51.203C282.862 50.466 284.357 49.4324 285.437 48.0925L285.447 48.0734Z" fill="black"/>
<path d="M263.223 38.6561C262.153 40.0055 261.622 41.5847 261.622 43.3935C261.622 44.9631 262.046 46.3604 262.886 47.6046C263.725 48.8488 264.921 49.8633 266.464 50.6576C264.94 50.983 263.734 51.5477 262.876 52.3517C262.008 53.1556 261.574 54.1701 261.574 55.4143C261.574 56.6584 261.998 57.7591 262.837 58.6779C263.677 59.5966 264.824 60.2953 266.262 60.7547C262.201 61.2715 260.166 62.8602 260.166 65.5113C260.166 66.9565 260.735 68.1624 261.873 69.1194C263.011 70.0765 264.554 70.7847 266.493 71.2345C268.413 71.6844 270.583 71.9141 272.994 71.9141V67.8657C270.911 67.8083 269.223 67.5403 267.998 67.0235C266.628 66.4492 265.943 65.607 265.943 64.5064C265.943 63.645 266.348 62.9846 267.159 62.5157C267.969 62.0467 269.02 61.817 270.323 61.817H272.994V49.1742C272.29 48.9445 271.711 48.5521 271.277 47.9396C270.602 46.9634 270.265 45.4512 270.265 43.4031C270.265 41.355 270.602 39.8045 271.277 38.8188C271.702 38.1967 272.29 37.7851 272.994 37.5554V34.512C271.046 34.6172 269.281 34.9618 267.718 35.5456C265.789 36.273 264.294 37.3066 263.223 38.6561Z" fill="black"/>
<path d="M310.989 36.1772C309.282 35.2105 307.333 34.6746 305.153 34.531V38.1583C305.78 38.2827 306.34 38.5124 306.812 38.8665C307.526 39.412 308.076 40.3021 308.452 41.5367C308.838 42.7809 309.05 44.4366 309.108 46.523H305.163V49.8536H316.998C317.172 49.0975 317.259 48.351 317.259 47.6332C317.259 45.1353 316.719 42.8862 315.648 40.8955C314.568 38.8952 313.024 37.3256 310.999 36.1772H310.989Z" fill="black"/>
<path d="M291.505 41.3741C290.328 43.5275 289.739 45.9488 289.739 48.6286C289.739 51.3084 290.337 53.7202 291.524 55.797C292.71 57.8739 294.398 59.4913 296.588 60.6398C298.382 61.5873 300.437 62.1232 302.723 62.2955V57.491C300.388 56.4383 299.048 53.8925 298.7 49.8441H302.723V46.5135H298.594C298.7 43.6232 299.25 41.4889 300.234 40.1107C300.909 39.1632 301.748 38.5699 302.723 38.2732V34.5215C300.408 34.6746 298.324 35.2489 296.501 36.3016C294.36 37.5362 292.691 39.2302 291.514 41.3741H291.505Z" fill="black"/>
<path d="M331.94 56.7828C331.65 56.4957 331.506 56.0937 331.506 55.5578V35H319.709V39.6513H321.792C322.332 39.6513 322.747 39.7853 323.027 40.0629C323.316 40.3404 323.461 40.7424 323.461 41.2783V55.5578C323.461 56.0937 323.316 56.5053 323.027 56.7828C322.738 57.0699 322.332 57.2135 321.792 57.2135H319.709V61.8648H337.65V57.2135H333.174C332.634 57.2135 332.219 57.0699 331.94 56.7828Z" fill="black"/>
<path d="M344.383 36.713C343.978 36.0144 343.408 35.4688 342.675 35.0573C341.942 34.6553 341.122 34.4543 340.206 34.4543C337.679 34.4543 335.595 35.3157 333.956 37.0193V41.1538C333.956 41.1538 334.978 39.7756 336.242 39.4407V39.9096C336.242 41.0964 336.637 42.0152 337.428 42.6755C338.219 43.3263 339.251 43.6613 340.515 43.6613C341.344 43.6613 342.106 43.4603 342.791 43.0679C343.476 42.6755 344.016 42.1204 344.402 41.4314C344.788 40.7327 344.99 39.9479 344.99 39.0674C344.99 38.1869 344.788 37.4308 344.383 36.7322V36.713Z" fill="black"/>
<path d="M190.079 56.7827C189.8 56.4956 189.665 56.0936 189.665 55.5577V42.9244C189.665 41.2496 189.298 39.7757 188.555 38.4932C187.813 37.2107 186.79 36.2154 185.478 35.5072C184.167 34.7989 182.681 34.4448 181.012 34.4448C179.103 34.4448 177.405 34.9138 175.919 35.8421C175.495 36.1101 175.1 36.4068 174.723 36.7418V40.6083C174.723 40.6083 174.945 40.4456 175.167 40.3116C175.669 40.0149 176.46 39.6895 177.53 39.6895C178.813 39.6895 179.807 40.1202 180.511 40.9911C181.215 41.8621 181.562 43.0967 181.562 44.695V55.5481C181.562 56.0841 181.427 56.4956 181.147 56.7731C180.868 57.0603 180.463 57.2038 179.922 57.2038H178.36V61.8552H193.359V57.2038H191.275C190.735 57.2038 190.33 57.0603 190.05 56.7731L190.079 56.7827Z" fill="black"/>
<path d="M255.516 56.7827C255.237 56.4956 255.102 56.0936 255.102 55.5577V42.9244C255.102 41.2496 254.735 39.7757 253.992 38.4932C253.259 37.2107 252.227 36.2154 250.915 35.5072C249.603 34.7989 248.118 34.4448 246.449 34.4448C244.539 34.4448 242.842 34.9138 241.356 35.8421C240.932 36.1101 240.536 36.4068 240.16 36.7418V40.6083C240.16 40.6083 240.382 40.4456 240.604 40.3116C241.106 40.0149 241.896 39.6895 242.967 39.6895C244.25 39.6895 245.244 40.1202 245.948 40.9911C246.652 41.8621 246.999 43.0967 246.999 44.695V55.5481C246.999 56.0841 246.864 56.4956 246.584 56.7731C246.305 57.0603 245.899 57.2038 245.359 57.2038H243.797V61.8552H258.796V57.2038H256.712C256.172 57.2038 255.767 57.0603 255.487 56.7731L255.516 56.7827Z" fill="black"/>
<path d="M238.125 56.7828C237.845 56.4957 237.71 56.0937 237.71 55.5578V35H225.913V39.6513H227.997C228.537 39.6513 228.952 39.7853 229.232 40.0629C229.521 40.3404 229.666 40.7424 229.666 41.2783V55.5578C229.666 56.0937 229.521 56.5053 229.232 56.7828C228.942 57.0699 228.537 57.2135 227.997 57.2135H225.913V61.8648H240.855V57.2135H239.34C238.8 57.2135 238.395 57.0699 238.115 56.7828H238.125Z" fill="black"/>
<path d="M293.395 23.8022C293.395 22.96 293.713 22.1273 294.36 21.3138C294.977 20.4908 295.807 19.7347 296.848 19.0265C297.89 18.3182 299.366 17.5047 301.266 16.5764L300.919 15.1121C298.556 15.4279 296.781 15.5906 295.594 15.5906C294.312 15.5906 293.289 15.4566 292.537 15.1791C291.572 14.8154 290.868 14.3177 290.405 13.6956C289.942 13.0735 289.72 12.3749 289.72 11.5996C289.72 11.1211 289.807 10.6139 289.99 10.0683C290.337 9.15911 290.829 8.4796 291.485 8.0202C292.141 7.57038 292.884 7.34069 293.733 7.34069C294.919 7.34069 296.057 7.72351 297.138 8.49874C298.218 9.27396 299.723 10.633 301.671 12.5854L302.877 11.8006C301.941 9.81949 301.276 8.29775 300.9 7.21627C300.523 6.13479 300.33 5.08202 300.33 4.05796C300.33 2.85205 300.687 1.87585 301.391 1.12934C302.105 0.382826 303.089 0 304.343 0C305.597 0 306.591 0.373255 307.295 1.12934C308.008 1.87585 308.356 2.86162 308.356 4.05796C308.356 5.08202 308.163 6.13479 307.787 7.21627C307.41 8.29775 306.755 9.82906 305.809 11.8006L307.015 12.5854C308.896 10.7191 310.372 9.40795 311.452 8.65187C312.532 7.88622 313.651 7.45554 314.818 7.34069C315.687 7.27369 316.468 7.47468 317.153 7.93407C317.837 8.40303 318.358 9.11126 318.696 10.0683C318.899 10.566 319.005 11.102 319.005 11.6666C319.005 12.4131 318.773 13.1022 318.3 13.7339C317.828 14.356 317.114 14.8441 316.15 15.1791C315.397 15.447 314.375 15.5906 313.092 15.5906C311.896 15.5906 310.121 15.4279 307.767 15.1121L307.42 16.5764C309.32 17.5047 310.796 18.3278 311.838 19.0265C312.88 19.7347 313.709 20.4908 314.326 21.3138C314.992 22.1082 315.32 22.9408 315.32 23.8022C315.32 24.3669 315.175 24.9124 314.876 25.4388C314.577 25.9652 314.134 26.4246 313.535 26.8361C312.687 27.4486 311.809 27.7549 310.893 27.7549C310.295 27.7549 309.735 27.6209 309.205 27.3433C308.674 27.0754 308.221 26.6638 307.835 26.1183C307.266 25.3239 306.793 24.3477 306.427 23.1897C306.06 22.0316 305.655 20.4046 305.221 18.3182H303.398C303.051 20.2706 302.684 21.8594 302.279 23.0748C301.874 24.2903 301.382 25.3048 300.784 26.1279C300.031 27.2189 299.028 27.7645 297.794 27.7645C296.877 27.7645 296.009 27.4582 295.18 26.8457C294.582 26.4341 294.128 25.9747 293.82 25.4484C293.511 24.922 293.357 24.3764 293.357 23.8118L293.395 23.8022Z" fill="black"/>
<path d="M26.1979 63.3002C26.1979 68.2865 20.9024 72 12.6167 72C5.76817 72 0 69.6647 0 65.2048C0 62.4963 2.08348 60.6396 5.55596 59.9505C3.20239 59.1561 1.6012 57.4526 1.6012 55.2322C1.6012 53.0118 3.26027 51.5188 5.76817 50.8297C3.09629 49.241 1.49509 46.6952 1.49509 43.6708C1.49509 38.474 6.14435 34.8084 13.0989 34.8084C15.7226 34.8084 18.0183 35.3348 19.8317 36.244C20.7384 35.5549 21.2786 34.8084 21.5969 33.8035C19.7835 33.5355 18.925 32.0521 18.925 30.6165C18.925 28.8172 20.4201 27.4294 22.3975 27.4294C24.3748 27.4294 25.8217 29.0182 25.8217 31.0376C25.8217 33.5355 24.0083 35.9186 21.5486 37.2489C23.5839 38.8377 24.7607 41.0676 24.7607 43.6708C24.7607 48.8677 20.1114 52.5811 13.1086 52.5811C11.1794 52.5811 9.42391 52.3131 7.91917 51.7867C6.57841 52.16 5.72958 53.0596 5.72958 54.122C5.72958 55.3949 6.90637 56.2945 8.67154 56.2945H17.1695C22.5132 56.2945 26.2075 59.3188 26.2075 63.3002H26.1979ZM21.2207 64.0467C21.2207 62.1326 19.4073 60.8119 16.8897 60.8119H8.98021C6.20223 60.8119 4.59138 62.4006 4.59138 64.3147C4.59138 67.2338 8.12173 68.7746 12.935 68.7746C17.7482 68.7746 21.2207 66.9179 21.2207 64.0563V64.0467ZM7.58157 43.7283C7.58157 47.8149 9.61683 50.1502 13.0893 50.1502C16.5618 50.1502 18.7031 47.8149 18.7031 43.7283C18.7031 39.6416 16.6196 37.2585 13.0893 37.2585C9.55895 37.2585 7.58157 39.5937 7.58157 43.7283Z" fill="black"/>
<path d="M54.2188 58.5722V61.9124H46.2514L44.8624 58.4095C43.3673 60.9075 40.4254 62.4388 36.895 62.4388C31.3391 62.4388 27.2203 58.9933 27.2203 54.3707C27.2203 49.7481 31.3391 46.5706 36.895 46.5706C40.2132 46.5706 42.9912 47.7957 44.5441 50.0161V44.4459C44.5441 40.254 42.1906 37.6508 38.0718 37.6508C37.1651 37.6508 35.2938 37.7561 33.6348 38.6557C34.8598 39.029 35.7183 40.1966 35.7183 41.6226C35.7183 43.5367 34.2232 45.068 32.1397 45.068C30.0562 45.068 28.6672 43.5846 28.6672 41.5652C28.6672 37.957 33.4226 34.77 39.2583 34.77C45.7788 34.77 49.9554 38.4356 49.9554 44.3215V56.8974C49.9554 57.9597 50.5438 58.5435 51.6145 58.5435H54.2381L54.2188 58.5722ZM44.5441 54.3324C44.5441 51.5187 41.9784 49.5567 38.8242 49.5567C35.67 49.5567 33.1525 51.6239 33.1525 54.3803C33.1525 57.1366 35.5543 59.156 38.8242 59.156C42.0941 59.156 44.5441 57.1941 44.5441 54.3324Z" fill="black"/>
<path d="M101.965 58.5722V61.9124H88.4902V58.5722H90.5255C91.5962 58.5722 92.1846 57.9884 92.1846 56.9261V43.6133C92.1846 40.589 90.4773 38.7897 87.6896 38.7897C84.2654 38.7897 81.8057 41.546 81.4295 46.3218V56.9356C81.4295 57.998 82.0179 58.5818 83.0886 58.5818H85.066V61.9219H72.2371V58.5818H74.3206C75.3913 58.5818 75.9797 57.998 75.9797 56.9356V43.6229C75.9797 40.5985 74.1084 38.7993 71.4365 38.7993C67.694 38.7993 65.1764 42.1394 65.1764 47.7095V56.9452C65.1764 58.0076 65.7648 58.5914 66.8355 58.5914H68.8129V61.9315H55.4438V58.5914H58.0675C59.1382 58.5914 59.7266 58.0076 59.7266 56.9452V40.2349C59.7266 39.1725 59.1382 38.5887 58.0675 38.5887H55.4438V35.2486H65.1764V40.4454C66.8355 36.9426 69.6713 34.8179 73.3078 34.8179C77.1565 34.8179 80.2624 37.201 81.1691 40.7038C82.8282 37.0957 85.7701 34.8179 89.5127 34.8179C94.1619 34.8179 97.6923 38.158 97.6923 42.8285V56.9356C97.6923 57.998 98.2807 58.5818 99.3514 58.5818H101.975L101.965 58.5722Z" fill="black"/>
<path d="M116.723 59.1083C121.112 59.1083 124.044 56.4572 124.961 52.3131L127.903 52.8395C126.62 58.7255 122.395 62.4389 115.875 62.4389C107.801 62.4389 102.457 56.6582 102.457 48.8007C102.457 40.9432 107.965 34.7988 115.826 34.7988C123.688 34.7988 128.125 40.4264 128.125 48.437C128.125 48.8103 128.125 49.1261 128.067 49.6046H108.496C108.814 55.28 111.544 59.0987 116.733 59.0987L116.723 59.1083ZM108.486 46.9631H122.337C122.067 40.8666 120.148 37.6796 115.923 37.6796C111.698 37.6796 108.862 41.2303 108.486 46.9631Z" fill="black"/>
</g>
<defs>
<clipPath id="clip0_171_109">
<rect width="345" height="72" fill="black"/>
</clipPath>
</defs>
</svg>
